<?xml version="1.0" encoding="UTF-8"?>
<svg id="Layer_2" data-name="Layer 2" xmlns="http://www.w3.org/2000/svg" viewBox="0 0 261.59 267.01">
  <g id="Layer_1-2" data-name="Layer 1">
    <path d="m259.89,254.71l-70.81-70.81c8.83-9.43,15.84-20.21,20.87-32.1,5.7-13.47,8.59-27.79,8.59-42.54s-2.89-29.06-8.59-42.54c-5.5-13.01-13.38-24.7-23.41-34.73-10.03-10.03-21.72-17.91-34.73-23.41C138.33,2.89,124.02,0,109.27,0s-29.06,2.89-42.53,8.59c-13.01,5.5-24.7,13.38-34.73,23.41-10.03,10.03-17.91,21.72-23.41,34.73C2.89,80.21,0,94.52,0,109.27s2.89,29.06,8.59,42.54c5.5,13.01,13.38,24.7,23.41,34.73,10.03,10.03,21.72,17.91,34.73,23.41,13.48,5.7,27.79,8.59,42.53,8.59s29.06-2.89,42.54-8.59c9.45-4,18.28-9.31,26.29-15.83l71.2,71.2c1.09,1.09,2.54,1.69,4.09,1.69s3-.6,4.09-1.69l2.43-2.43c1.09-1.09,1.69-2.54,1.69-4.09s-.6-3-1.69-4.09Zm-150.62-50.94c-12.76,0-25.14-2.5-36.78-7.42-11.25-4.76-21.36-11.57-30.04-20.26-8.68-8.68-15.5-18.79-20.26-30.04-4.93-11.65-7.42-24.02-7.42-36.78s2.5-25.14,7.42-36.78c4.76-11.25,11.57-21.36,20.26-30.04,8.68-8.68,18.79-15.5,30.04-20.26,11.65-4.93,24.02-7.42,36.78-7.42s25.14,2.5,36.78,7.42c11.25,4.76,21.36,11.58,30.04,20.26,8.68,8.68,15.5,18.79,20.26,30.04,4.93,11.65,7.42,24.02,7.42,36.78s-2.5,25.14-7.42,36.78c-4.76,11.25-11.57,21.36-20.26,30.04-8.68,8.68-18.79,15.5-30.04,20.26-11.65,4.93-24.02,7.42-36.78,7.42Z"/>
  </g>
</svg>