<?xml version="1.0" encoding="UTF-8"?>
<svg id="Layer_2" data-name="Layer 2" xmlns="http://www.w3.org/2000/svg" viewBox="0 0 383.23 346.66">
  <g id="Layer_1-2" data-name="Layer 1">
    <g>
      <path d="m169.94,231.43l-95.17-95.16c-3.91-3.91-3.91-10.24,0-14.14,3.91-3.91,10.24-3.91,14.14,0l81.02,81.02L366.16,6.92c3.91-3.91,10.24-3.91,14.14,0s3.91,10.24,0,14.14l-210.36,210.36Z"/>
      <path d="m343.88,142.24c-.78-4.29-4.5-7.4-8.85-7.4-.54,0-1.08.05-1.61.15-4.88.88-8.14,5.58-7.25,10.46,1.65,9.13,2.49,18.52,2.49,27.88,0,85.65-69.68,155.33-155.33,155.33S18,258.98,18,173.33,87.68,18,173.33,18c29.88,0,58.88,8.5,83.89,24.58,1.46.94,3.14,1.43,4.86,1.43,3.08,0,5.92-1.54,7.58-4.13,1.3-2.02,1.74-4.43,1.22-6.78-.51-2.35-1.91-4.36-3.93-5.66C239.04,9.49,206.66,0,173.33,0,77.76,0,0,77.76,0,173.33s77.76,173.33,173.33,173.33,173.33-77.76,173.33-173.33c0-10.44-.94-20.9-2.78-31.09Z"/>
    </g>
  </g>
</svg>