<?xml version="1.0" encoding="UTF-8"?>
<svg id="Layer_2" data-name="Layer 2" xmlns="http://www.w3.org/2000/svg" viewBox="0 0 400.66 400.66">
  <g id="Layer_1-2" data-name="Layer 1">
    <g>
      <path d="m200.33,399.66c-26.91,0-53.01-5.27-77.59-15.67-23.74-10.04-45.05-24.41-63.36-42.72-18.3-18.3-32.68-39.62-42.72-63.36C6.27,253.34,1,227.24,1,200.33s5.27-53.01,15.67-77.59c10.04-23.74,24.41-45.06,42.72-63.36,18.3-18.3,39.62-32.67,63.36-42.72C147.32,6.27,173.42,1,200.33,1s53.01,5.27,77.59,15.67c21.94,9.28,41.84,22.28,59.19,38.66l.02-.02.75.68,3.41,3.41.07.07,6.81,6.8-.17.17c15.13,16.66,27.24,35.6,36,56.3,10.4,24.58,15.67,50.68,15.67,77.59s-5.27,53.01-15.67,77.59c-10.04,23.74-24.41,45.06-42.72,63.36-18.3,18.3-39.62,32.68-63.36,42.72-24.58,10.4-50.68,15.67-77.59,15.67Zm-123.45-62.1c15.29,13.78,32.65,24.83,51.6,32.85,22.75,9.62,46.93,14.5,71.85,14.5s49.09-4.88,71.85-14.5c21.98-9.3,41.72-22.61,58.67-39.56,16.95-16.95,30.26-36.69,39.56-58.67,9.62-22.75,14.5-46.92,14.5-71.85s-4.88-49.09-14.5-71.85c-8.02-18.95-19.07-36.31-32.85-51.6L76.88,337.56ZM200.33,15.75c-24.92,0-49.09,4.88-71.85,14.5-21.98,9.3-41.72,22.61-58.67,39.56-16.96,16.96-30.27,36.7-39.56,58.67-9.62,22.75-14.5,46.92-14.5,71.85s4.88,49.1,14.5,71.85c8.54,20.18,20.49,38.51,35.53,54.51L326.68,65.77c-16-15.04-34.33-26.99-54.51-35.52-22.75-9.62-46.92-14.5-71.85-14.5Z"/>
      <path d="m200.33,2c26.77,0,52.75,5.24,77.2,15.59,22.15,9.37,42.18,22.53,59.6,39.15l.04-.04,3.38,3.38s.01.01.02.02c0,0,.01.01.02.02l6.17,6.17-.14.14c15.35,16.74,27.6,35.78,36.46,56.72,10.34,24.46,15.59,50.43,15.59,77.2s-5.24,52.75-15.59,77.2c-9.99,23.62-24.29,44.83-42.5,63.04-18.21,18.21-39.42,32.51-63.04,42.5-24.46,10.34-50.43,15.59-77.2,15.59s-52.75-5.24-77.2-15.59c-23.62-9.99-44.83-24.29-63.04-42.5-18.21-18.21-32.51-39.42-42.5-63.04-10.34-24.46-15.59-50.43-15.59-77.2s5.24-52.74,15.59-77.2c9.99-23.62,24.29-44.83,42.5-63.04,18.21-18.21,39.42-32.51,63.04-42.5,24.45-10.34,50.43-15.59,77.2-15.59M65.75,328.12L328.12,65.75c-16.26-15.46-34.92-27.7-55.55-36.43-22.88-9.68-47.18-14.58-72.24-14.58s-49.36,4.91-72.24,14.58c-22.1,9.35-41.95,22.73-58.99,39.77-17.05,17.05-30.43,36.89-39.77,58.99-9.68,22.88-14.58,47.18-14.58,72.23s4.91,49.36,14.58,72.24c8.73,20.63,20.97,39.29,36.43,55.55m134.58,57.79c25.06,0,49.36-4.91,72.24-14.58,22.1-9.35,41.95-22.73,58.99-39.77,17.05-17.05,30.43-36.89,39.77-58.99,9.68-22.88,14.58-47.18,14.58-72.24s-4.91-49.36-14.58-72.23c-8.21-19.42-19.54-37.1-33.74-52.66L75.43,337.59c15.57,14.19,33.24,25.52,52.66,33.74,22.88,9.67,47.18,14.58,72.24,14.58m-131.23-54.35s0,0,0,0c0,0,0,0,0,0h0M200.33,0c-27.04,0-53.28,5.3-77.98,15.75-23.86,10.09-45.28,24.53-63.67,42.93-18.4,18.39-32.84,39.82-42.93,63.67C5.3,147.05,0,173.29,0,200.33s5.3,53.28,15.75,77.98c10.09,23.86,24.53,45.28,42.93,63.67,18.4,18.4,39.82,32.84,63.67,42.93,24.7,10.45,50.94,15.75,77.98,15.75s53.28-5.3,77.98-15.75c23.85-10.09,45.28-24.53,63.67-42.93,18.4-18.39,32.84-39.82,42.93-63.67,10.45-24.7,15.75-50.94,15.75-77.98s-5.3-53.28-15.75-77.98c-8.68-20.52-20.63-39.3-35.54-55.87l.21-.21-1.41-1.41-6.13-6.13-.04-.04-.06-.05-3.35-3.35-1.41-1.41-.08.08c-17.26-16.15-37.03-29-58.79-38.2C253.61,5.3,227.37,0,200.33,0h0ZM65.8,325.24c-14.63-15.73-26.27-33.7-34.63-53.46-9.57-22.63-14.42-46.67-14.42-71.46s4.85-48.83,14.42-71.46c9.25-21.86,22.48-41.49,39.35-58.36,16.86-16.86,36.49-30.1,58.36-39.35,22.63-9.57,46.67-14.42,71.46-14.42s48.83,4.85,71.46,14.42c19.75,8.36,37.73,20,53.46,34.63L65.8,325.24h0Zm12.54,12.27L337.52,78.33c13.38,15.02,24.13,32.01,31.97,50.54,9.57,22.63,14.42,46.67,14.42,71.46s-4.85,48.83-14.42,71.46c-9.25,21.86-22.48,41.49-39.35,58.36-16.86,16.86-36.49,30.1-58.36,39.35-22.63,9.57-46.67,14.42-71.46,14.42s-48.83-4.85-71.46-14.42c-18.53-7.84-35.52-18.59-50.54-31.97h0Z"/>
    </g>
  </g>
</svg>